<svg width="226" height="43" viewBox="0 0 226 43" fill="none" xmlns="http://www.w3.org/2000/svg">
<path d="M191.75 34.25C194.806 33.7962 197.597 32.2587 199.614 29.9181C201.631 27.5775 202.739 24.5897 202.736 21.5C202.752 17.6215 204.159 13.8774 206.701 10.9487C209.244 8.0199 212.753 6.10109 216.591 5.54123L222.095 4.75498C221.946 4.58498 221.819 4.41499 221.649 4.24499C214.721 -2.68251 201.419 -0.600015 191.899 8.87749C183.845 17.0375 181.125 27.875 184.865 35.2275L191.75 34.25Z" fill="#FFD088"/>
<path d="M206.051 21.5C206.037 25.3777 204.634 29.1221 202.096 32.0539C199.558 34.9857 196.053 36.9108 192.218 37.48L186.99 38.2237L187.309 38.585C194.236 45.5125 207.539 43.4512 217.059 33.9737C225.07 25.9837 227.875 15.125 224.156 7.87874L217.059 8.89874C214.022 9.33987 211.243 10.8526 209.225 13.1636C207.206 15.4747 206.08 18.4315 206.051 21.5Z" fill="#FFD088"/>
<path d="M17.928 27.088L18.576 26.62C19.392 26.14 19.968 25.9 20.304 25.9C21.048 25.9 21.852 26.572 22.716 27.916C23.244 28.756 23.508 29.428 23.508 29.932C23.508 30.436 23.34 30.856 23.004 31.192C22.692 31.528 22.32 31.828 21.888 32.092C21.456 32.356 21.036 32.608 20.628 32.848C20.244 33.088 19.44 33.4 18.216 33.784C16.992 34.168 15.804 34.36 14.652 34.36C13.524 34.36 12.372 34.216 11.196 33.928C10.044 33.616 8.84403 33.112 7.59602 32.416C6.37203 31.696 5.26802 30.832 4.28402 29.824C3.30002 28.792 2.48402 27.484 1.83602 25.9C1.21202 24.292 0.900024 22.552 0.900024 20.68C0.900024 18.808 1.21202 17.116 1.83602 15.604C2.46002 14.068 3.25202 12.808 4.21202 11.824C5.19602 10.816 6.31202 9.97598 7.56002 9.30398C9.91203 8.00798 12.276 7.35998 14.652 7.35998C15.78 7.35998 16.92 7.53998 18.072 7.89998C19.248 8.23598 20.136 8.58398 20.736 8.94398L21.6 9.44798C22.032 9.71198 22.368 9.92798 22.608 10.096C23.232 10.6 23.544 11.176 23.544 11.824C23.544 12.448 23.292 13.108 22.788 13.804C21.852 15.1 21.012 15.748 20.268 15.748C19.836 15.748 19.224 15.484 18.432 14.956C17.424 14.14 16.08 13.732 14.4 13.732C12.84 13.732 11.304 14.272 9.79202 15.352C9.07202 15.88 8.47202 16.624 7.99202 17.584C7.51202 18.544 7.27202 19.636 7.27202 20.86C7.27202 22.06 7.51202 23.14 7.99202 24.1C8.47202 25.06 9.08403 25.816 9.82802 26.368C11.292 27.424 12.816 27.952 14.4 27.952C15.144 27.952 15.84 27.856 16.488 27.664C17.16 27.472 17.64 27.28 17.928 27.088Z" fill="#FFD088"/>
<path d="M25.3336 24.532C25.3336 21.652 26.3416 19.276 28.3576 17.404C30.3736 15.532 32.6776 14.596 35.2696 14.596C37.8616 14.596 40.1536 15.532 42.1456 17.404C44.1376 19.252 45.1336 21.616 45.1336 24.496C45.1336 26.488 44.6176 28.264 43.5856 29.824C42.5536 31.36 41.2936 32.5 39.8056 33.244C38.3416 33.964 36.8176 34.324 35.2336 34.324C33.6496 34.324 32.1136 33.94 30.6256 33.172C29.1376 32.38 27.8776 31.228 26.8456 29.716C25.8376 28.18 25.3336 26.452 25.3336 24.532ZM32.8576 27.124C33.6256 27.7 34.4056 27.988 35.1976 27.988C35.9896 27.988 36.7816 27.688 37.5736 27.088C38.3656 26.488 38.7616 25.6 38.7616 24.424C38.7616 23.248 38.3896 22.372 37.6456 21.796C36.9016 21.22 36.0976 20.932 35.2336 20.932C34.3696 20.932 33.5656 21.232 32.8216 21.832C32.0776 22.432 31.7056 23.32 31.7056 24.496C31.7056 25.648 32.0896 26.524 32.8576 27.124Z" fill="#FFD088"/>
<path d="M71.2556 15.028C72.9116 15.028 73.8836 15.484 74.1716 16.396C74.3156 16.852 74.3876 17.452 74.3876 18.196C74.3876 18.94 74.3036 19.54 74.1356 19.996C73.9916 20.428 73.7516 20.74 73.4156 20.932C72.9116 21.22 72.1796 21.364 71.2196 21.364L68.9156 21.22V30.868C68.9156 31.78 68.7956 32.464 68.5556 32.92C68.3396 33.352 67.9916 33.64 67.5116 33.784C67.0556 33.928 66.4556 34 65.7116 34C64.9676 34 64.3676 33.928 63.9116 33.784C63.4796 33.616 63.1676 33.364 62.9756 33.028C62.7836 32.668 62.6636 32.344 62.6156 32.056C62.5916 31.768 62.5796 31.348 62.5796 30.796V21.256C61.4276 21.328 60.4796 21.364 59.7356 21.364L56.2076 21.22V30.868C56.2076 31.78 56.0876 32.464 55.8476 32.92C55.6316 33.352 55.2836 33.64 54.8036 33.784C54.3476 33.928 53.7476 34 53.0036 34C52.2596 34 51.6596 33.928 51.2036 33.784C50.7716 33.616 50.4596 33.364 50.2676 33.028C50.0756 32.668 49.9556 32.344 49.9076 32.056C49.8836 31.768 49.8716 31.348 49.8716 30.796V21.256C49.4156 21.328 48.9236 21.364 48.3956 21.364C47.8676 21.364 47.4236 21.16 47.0636 20.752C46.7276 20.344 46.5596 19.648 46.5596 18.664C46.5596 17.68 46.6196 16.972 46.7396 16.54C46.8596 16.084 47.0276 15.76 47.2436 15.568C47.6276 15.256 48.1076 15.1 48.6836 15.1L49.8716 15.244V13.336C49.8716 11.488 50.5316 9.81998 51.8516 8.33198C53.1716 6.81998 55.0796 6.06398 57.5756 6.06398C58.1276 6.06398 58.5356 6.08798 58.7996 6.13598C59.0876 6.15998 59.4116 6.25598 59.7716 6.42398C60.4196 6.75998 60.7436 7.69598 60.7436 9.23198C60.7436 10.384 60.5396 11.2 60.1316 11.68C59.7956 12.088 59.2676 12.304 58.5476 12.328C58.3316 12.352 57.9956 12.364 57.5396 12.364C56.6516 12.364 56.2076 12.664 56.2076 13.264V15.244C57.5036 15.148 58.6196 15.1 59.5556 15.1L62.5796 15.244V13.336C62.5796 11.488 63.2396 9.81998 64.5596 8.33198C65.8796 6.81998 67.7876 6.06398 70.2836 6.06398C70.8596 6.06398 71.2796 6.08798 71.5436 6.13598C71.8076 6.15998 72.1196 6.25598 72.4796 6.42398C73.1276 6.75998 73.4516 7.69598 73.4516 9.23198C73.4516 10.384 73.2476 11.2 72.8396 11.68C72.5036 12.088 71.9876 12.304 71.2916 12.328C71.0516 12.352 70.7036 12.364 70.2476 12.364C69.3596 12.364 68.9156 12.664 68.9156 13.264V15.244L71.2556 15.028Z" fill="#FFD088"/>
<path d="M94.646 22.264C94.646 23.728 94.274 24.82 93.53 25.54C92.81 26.236 92.006 26.584 91.118 26.584H82.586C82.586 27.256 82.982 27.82 83.774 28.276C84.566 28.732 85.358 28.96 86.15 28.96C87.542 28.96 88.634 28.816 89.426 28.528L89.822 28.384C90.398 28.12 90.878 27.988 91.262 27.988C92.03 27.988 92.69 28.528 93.242 29.608C93.554 30.256 93.71 30.808 93.71 31.264C93.71 33.4 91.154 34.468 86.042 34.468C84.266 34.468 82.682 34.168 81.29 33.568C79.922 32.944 78.854 32.128 78.086 31.12C76.574 29.176 75.818 27.004 75.818 24.604C75.818 21.58 76.79 19.168 78.734 17.368C80.702 15.544 83.15 14.632 86.078 14.632C89.414 14.632 91.862 15.808 93.422 18.16C94.238 19.408 94.646 20.776 94.646 22.264ZM87.05 23.308C87.962 23.308 88.418 22.924 88.418 22.156C88.418 21.604 88.202 21.16 87.77 20.824C87.362 20.488 86.762 20.32 85.97 20.32C85.202 20.32 84.434 20.644 83.666 21.292C82.898 21.916 82.514 22.588 82.514 23.308H87.05Z" fill="#FFD088"/>
<path d="M115.283 22.264C115.283 23.728 114.911 24.82 114.167 25.54C113.447 26.236 112.643 26.584 111.755 26.584H103.223C103.223 27.256 103.619 27.82 104.411 28.276C105.203 28.732 105.995 28.96 106.787 28.96C108.179 28.96 109.271 28.816 110.063 28.528L110.459 28.384C111.035 28.12 111.515 27.988 111.899 27.988C112.667 27.988 113.327 28.528 113.879 29.608C114.191 30.256 114.347 30.808 114.347 31.264C114.347 33.4 111.791 34.468 106.679 34.468C104.903 34.468 103.319 34.168 101.927 33.568C100.559 32.944 99.4907 32.128 98.7227 31.12C97.2107 29.176 96.4547 27.004 96.4547 24.604C96.4547 21.58 97.4267 19.168 99.3707 17.368C101.339 15.544 103.787 14.632 106.715 14.632C110.051 14.632 112.499 15.808 114.059 18.16C114.875 19.408 115.283 20.776 115.283 22.264ZM107.687 23.308C108.599 23.308 109.055 22.924 109.055 22.156C109.055 21.604 108.839 21.16 108.407 20.824C107.999 20.488 107.399 20.32 106.607 20.32C105.839 20.32 105.071 20.644 104.303 21.292C103.535 21.916 103.151 22.588 103.151 23.308H107.687Z" fill="#FFD088"/>
<path d="M118.027 30.292C117.403 29.524 117.091 28.84 117.091 28.24C117.091 27.616 117.607 26.8 118.639 25.792C119.239 25.216 119.875 24.928 120.547 24.928C121.219 24.928 122.155 25.528 123.355 26.728C123.691 27.136 124.171 27.532 124.795 27.916C125.419 28.276 125.995 28.456 126.523 28.456C128.755 28.456 129.871 27.544 129.871 25.72C129.871 25.168 129.559 24.712 128.935 24.352C128.335 23.968 127.579 23.692 126.667 23.524C125.755 23.356 124.771 23.092 123.715 22.732C122.659 22.348 121.675 21.904 120.763 21.4C119.851 20.896 119.083 20.104 118.459 19.024C117.859 17.92 117.559 16.6 117.559 15.064C117.559 12.952 118.339 11.116 119.899 9.55598C121.483 7.97198 123.631 7.17998 126.343 7.17998C127.783 7.17998 129.091 7.37198 130.267 7.75598C131.467 8.11598 132.295 8.48798 132.751 8.87198L133.651 9.55598C134.395 10.252 134.767 10.84 134.767 11.32C134.767 11.8 134.479 12.46 133.903 13.3C133.087 14.5 132.247 15.1 131.383 15.1C130.879 15.1 130.255 14.86 129.511 14.38C129.439 14.332 129.295 14.212 129.079 14.02C128.887 13.828 128.707 13.672 128.539 13.552C128.035 13.24 127.387 13.084 126.595 13.084C125.827 13.084 125.179 13.276 124.651 13.66C124.147 14.02 123.895 14.536 123.895 15.208C123.895 15.856 124.195 16.384 124.795 16.792C125.419 17.2 126.187 17.476 127.099 17.62C128.011 17.764 129.007 17.992 130.087 18.304C131.167 18.592 132.163 18.952 133.075 19.384C133.987 19.816 134.743 20.572 135.343 21.652C135.967 22.708 136.279 24.016 136.279 25.576C136.279 27.136 135.967 28.516 135.343 29.716C134.719 30.892 133.903 31.804 132.895 32.452C130.951 33.724 128.875 34.36 126.667 34.36C125.539 34.36 124.471 34.228 123.463 33.964C122.455 33.676 121.639 33.328 121.015 32.92C119.743 32.152 118.855 31.408 118.351 30.688L118.027 30.292Z" fill="#FFD088"/>
<path d="M169.102 7.75598C170.71 8.33198 171.514 9.09998 171.514 10.06C171.514 10.372 171.37 10.96 171.082 11.824L164.17 31.804C164.122 31.972 164.038 32.176 163.918 32.416C163.798 32.656 163.474 32.98 162.946 33.388C162.442 33.772 161.83 33.964 161.11 33.964C160.414 33.964 159.802 33.772 159.274 33.388C158.77 32.98 158.434 32.584 158.266 32.2L154.054 19.78C151.39 27.652 150.034 31.66 149.986 31.804C149.938 31.948 149.83 32.152 149.662 32.416C149.494 32.68 149.302 32.92 149.086 33.136C148.534 33.688 147.874 33.964 147.106 33.964C146.338 33.964 145.702 33.784 145.198 33.424C144.718 33.064 144.394 32.704 144.226 32.344L143.974 31.804L137.026 11.824C136.762 11.032 136.63 10.444 136.63 10.06C136.63 9.09998 137.434 8.34398 139.042 7.79198C139.738 7.55198 140.362 7.43198 140.914 7.43198C141.49 7.43198 141.922 7.62398 142.21 8.00798C142.522 8.39198 142.798 8.97998 143.038 9.77198L146.998 21.796L150.922 9.95198C151.258 8.94398 151.87 8.24798 152.758 7.86398C153.142 7.69598 153.634 7.61198 154.234 7.61198C154.858 7.61198 155.434 7.81598 155.962 8.22398C156.49 8.60798 156.826 8.99198 156.97 9.37598L161.11 21.868L165.07 9.77198C165.262 9.21998 165.418 8.81198 165.538 8.54798C165.658 8.28398 165.874 8.03198 166.186 7.79198C166.522 7.52798 166.93 7.39598 167.41 7.39598C167.89 7.39598 168.454 7.51598 169.102 7.75598Z" fill="#FFD088"/>
</svg>
